<?xml version="1.0" encoding="UTF-8"?>
<svg width="33.5416667px" height="38.3333333px" viewBox="0 0 33.5416667 38.3333333" version="1.1" xmlns="http://www.w3.org/2000/svg" xmlns:xlink="http://www.w3.org/1999/xlink">
    <title>ic_Member _svg</title>
    <g id="svg_explain" stroke="none" stroke-width="1" fill="none" fill-rule="evenodd">
        <g id="svg_explain_color" transform="translate(-68.3333, -577.8333)" fill="rgb(172, 180, 191)">
            <g id="ic_Member" transform="translate(65, 577)">
                <path d="M28.3139845,8.0685974 L25.0163743,8.0685974 L20.1041667,3.19836028 L15.191959,8.0685974 L11.8943489,8.0685974 L11.8943489,0.833333333 L28.3139845,0.833333333 L28.3139845,8.0685974 Z M15.191959,10.7818214 L20.1041667,5.9115843 L25.0163743,10.7818214 L31.9627924,10.7818214 L31.9627924,17.6688884 L36.875,22.5391255 L31.9627924,27.4093626 L31.9627924,34.2964296 L25.0163743,34.2964296 L20.1041667,39.1666667 L15.191959,34.2964296 L8.24554098,34.2964296 L8.24554098,27.4093626 L3.33333333,22.5391255 L8.24554098,17.6688884 L8.24554098,10.7818214 L15.191959,10.7818214 Z M20.1041667,26.1567575 L24.3933403,28.3924541 L23.574183,23.6569738 L27.0441993,20.3034289 L22.2487535,19.6124612 L20.1041667,15.3038614 L17.9595798,19.6124612 L13.164134,20.3034289 L16.6341503,23.6569738 L15.814993,28.3924541 L20.1041667,26.1567575 Z" id="General-/-member-/-filled"></path>
            </g>
        </g>
    </g>
</svg>