<svg xmlns="http://www.w3.org/2000/svg" width="52" height="40" version="1.1" viewBox="0 0 52 40"><defs><linearGradient id="linearGradient-1" x1="0%" x2="100%" y1="49.97%" y2="49.97%"><stop offset="0%" stop-color="#231F5C"/><stop offset="100%" stop-color="#034EA2"/></linearGradient></defs><g id="Hotel_User_part_UI" fill="none" fill-rule="evenodd" stroke="none" stroke-width="1"><g id="Search_Results_modify_01" transform="translate(-450 -1938)"><g id="Navigation/Footers/v1" transform="translate(0 1629)"><g id="Footer"><g id="Details" transform="translate(165 271)"><g id="Links" transform="translate(285)"><g id="Group-5" transform="translate(0 38)"><g id="Visa"><rect id="Rectangle" width="50.83" height="38.05" x=".5" y=".5" fill="#FFF" stroke="#9DADBC" stroke-opacity=".36" rx="2.13"/><g id="visa-seeklogo.com" fill="url(#linearGradient-1)" fill-rule="nonzero" transform="translate(6 13)"><path id="Shape" d="M14.536.213 9.52 12.179H6.258L3.794 2.64c-.142-.585-.284-.797-.727-1.046C2.305 1.188 1.08.798 0 .567L.07.213h5.266c.674 0 1.276.443 1.418 1.223L8.066 8.35 11.292.213h3.244Zm12.817 8.066c.018-3.156-4.36-3.333-4.343-4.734.018-.425.425-.886 1.312-1.01.443-.053 1.666-.106 3.049.532l.55-2.535C27.175.266 26.218 0 25.03 0c-3.05 0-5.212 1.63-5.23 3.953-.017 1.72 1.543 2.677 2.713 3.262 1.205.585 1.613.957 1.613 1.49-.018.797-.957 1.151-1.844 1.17-1.56.017-2.464-.426-3.173-.763l-.567 2.623c.727.337 2.056.62 3.439.639 3.244 0 5.353-1.614 5.371-4.095m8.084 3.9h2.854L35.79.213H33.15c-.603 0-1.1.337-1.312.868l-4.644 11.08h3.244l.638-1.79h3.97l.39 1.808ZM31.98 7.942l1.63-4.485.94 4.485h-2.57ZM18.95.212 16.398 12.18h-3.085L15.866.213h3.084Z"/></g></g></g></g></g></g></g></g></g></svg>