<svg xmlns="http://www.w3.org/2000/svg" width="51" height="40" fill="none" viewBox="0 0 51 40"><rect width="51" height="40" fill="#fff" rx="2.13"/><rect width="50" height="39" x=".5" y=".5" stroke="#9DADBC" stroke-opacity=".36" rx="1.63"/><path fill="#1C3C6B" d="M20.908 31.585h.876a1.589 1.589 0 0 1-.237.765 1.414 1.414 0 0 1-.583.521c-.248.125-.547.188-.897.188-.273 0-.518-.047-.735-.141a1.565 1.565 0 0 1-.557-.41 1.825 1.825 0 0 1-.348-.645 2.788 2.788 0 0 1-.12-.846v-.296c0-.313.04-.595.123-.847a1.87 1.87 0 0 1 .357-.647c.156-.178.343-.315.56-.41a1.78 1.78 0 0 1 .726-.144c.356 0 .655.064.9.193.246.13.436.307.57.533.138.227.22.485.247.774h-.879a1.13 1.13 0 0 0-.102-.437.582.582 0 0 0-.267-.272.999.999 0 0 0-.469-.094.849.849 0 0 0-.384.082.712.712 0 0 0-.275.25c-.074.11-.13.251-.167.421a2.916 2.916 0 0 0-.053.592v.302c0 .22.017.415.05.583.033.166.084.306.152.422.07.113.16.199.27.257a.877.877 0 0 0 .401.085c.184 0 .335-.029.454-.088a.607.607 0 0 0 .273-.26c.064-.116.102-.26.114-.431Zm3.188-2.121L22.936 33H22l1.585-4.266h.595l-.085.73ZM25.06 33l-1.163-3.536-.094-.73h.6L25.997 33h-.937Zm-.053-1.588v.689h-2.253v-.689h2.253Zm3.606.472a.563.563 0 0 0-.035-.205.388.388 0 0 0-.123-.17 1.093 1.093 0 0 0-.255-.155 3.605 3.605 0 0 0-.425-.159 5.377 5.377 0 0 1-.55-.21 2.266 2.266 0 0 1-.457-.273 1.228 1.228 0 0 1-.311-.366 1.01 1.01 0 0 1-.111-.484 1 1 0 0 1 .117-.483c.078-.147.187-.272.328-.375a1.56 1.56 0 0 1 .498-.243c.193-.057.405-.085.636-.085.314 0 .589.056.823.17.234.113.416.268.545.465.13.198.196.423.196.677h-.873a.658.658 0 0 0-.079-.328.535.535 0 0 0-.234-.225.835.835 0 0 0-.393-.082.908.908 0 0 0-.38.07.508.508 0 0 0-.23.184.454.454 0 0 0-.075.258c0 .073.017.138.052.197a.595.595 0 0 0 .164.164c.073.05.162.098.267.143.106.045.228.089.366.132.233.07.437.15.612.237.178.088.327.187.446.296.119.11.209.234.27.372.06.139.09.296.09.472 0 .185-.036.352-.108.498-.073.147-.177.27-.314.372-.136.102-.3.179-.489.232-.19.052-.401.079-.636.079-.21 0-.419-.028-.624-.082a1.897 1.897 0 0 1-.56-.255 1.285 1.285 0 0 1-.398-.434c-.1-.176-.15-.384-.15-.624h.883c0 .133.02.245.061.337a.563.563 0 0 0 .173.223.741.741 0 0 0 .27.123c.105.025.22.038.345.038a.936.936 0 0 0 .375-.065.462.462 0 0 0 .293-.436Zm4.322-1.412v.685h-2.227v-.685h2.227Zm-1.966-1.738V33h-.88v-4.266h.88Zm2.593 0V33h-.877v-4.266h.877Z"/><g clip-path="url(#clip0_2012_1361)"><path fill="#FFCEBF" d="M20.774 19.079v2.787c1.587.07 1.13.35 3.892 1.593.351.138 1.164.365 2.033-.035h.002l5.427-1.944c.177-.08 1.067-.565.716-1.466-.41-.961-1.468-.56-1.556-.532l-2.834.784"/><path fill="#FFCEBF" d="m23.98 20.245 3.154 1a1.036 1.036 0 0 0 1.28-.714c.157-.55-.162-1.124-.793-1.358l-2.799-.95s-.598-.976-2.02-.976c-.899 0-1.674.726-2.028 1.362v1.27"/><path fill="#1C3C6B" d="M22.722 20.198a.344.344 0 0 1-.195-.06.33.33 0 0 1-.098-.097.328.328 0 0 1-.052-.126.351.351 0 1 1 .345.283Z"/><path fill="#D6F4FC" d="M20.774 18.564h-1.332v3.777h1.332v-3.777Z"/><path fill="#43CAF9" d="M19.442 18.564h-2.09v4.433h2.09v-4.433Z"/><path fill="#1C3C6B" d="M33.172 19.886a.23.23 0 0 0-.005-.01c-.323-.758-1.082-1.037-1.98-.73l-2.45.677c-.141-.43-.494-.794-.994-.98l-.009-.003-2.692-.913c-.224-.29-.926-1.031-2.24-1.031-.919 0-1.732.63-2.196 1.316h-3.254a.352.352 0 0 0-.352.352v4.433c0 .194.157.351.352.351h2.09a.352.352 0 0 0 .351-.351v-.304h.98a.352.352 0 0 0 .352-.352v-.1c.572.05.76.157 1.284.46.404.233 1.014.585 2.113 1.078l.015.007c.21.083.623.213 1.131.213.354 0 .754-.063 1.165-.25l5.413-1.938a.307.307 0 0 0 .029-.011c.517-.238 1.288-.91.897-1.914ZM19.09 22.645h-1.387v-3.73h1.387v3.73Zm1.332-.655h-.629v-3.074h.63v3.074Zm11.572-.835-5.411 1.937-.016.007a.25.25 0 0 0-.014.006c-.754.346-1.47.139-1.751.03-1.061-.478-1.628-.805-2.041-1.043-.576-.332-.853-.492-1.636-.556v-2.832c.334-.546.98-1.105 1.676-1.105 1.195 0 1.702.777 1.722.808.042.07.108.123.186.15l2.794.947c.446.168.682.55.574.931a.68.68 0 0 1-.326.411.68.68 0 0 1-.516.062l-3.15-.998a.352.352 0 0 0-.212.67l3.155 1a1.391 1.391 0 0 0 1.065-.12 1.379 1.379 0 0 0 .681-.918l2.64-.731c.381-.13.882-.177 1.105.336.23.602-.37.934-.525 1.008Z"/><path fill="#E5F5FD" d="m25.434 9.475-3.122-3.123-3.915 3.915 6.69 6.69 3.694-3.694"/><path fill="#FFCD34" d="M23.585 10.008v-.002a1.652 1.652 0 1 0 1.765 1.69"/><path fill="#FFCEBF" d="M31.226 11.46V8.674c-1.587-.07-1.13-.35-3.892-1.592-.351-.139-1.164-.365-2.033.034l-.002.001-1.637.586 1.689 1.69"/><path fill="#F9F3F1" d="m18.397 10.267 1.327-1.327a1.879 1.879 0 0 1 0 2.655l-1.327-1.328ZM23.76 15.63a1.879 1.879 0 0 1 2.654 0l-1.328 1.327-1.327-1.327ZM20.984 7.68l1.328-1.328 1.327 1.328a1.879 1.879 0 0 1-2.655 0ZM27.238 12.4a1.88 1.88 0 0 0 .436 1.97l1.107-1.107"/><path fill="#FFCEBF" d="m28.02 10.295-3.154-1a1.037 1.037 0 0 0-1.28.713c-.157.55.162 1.124.793 1.358l2.8.95h-.001s.598.976 2.02.976c.899 0 1.674-.726 2.028-1.362v-1.269"/><path fill="#1C3C6B" d="M29.278 11.045a.351.351 0 1 1 .003-.703.351.351 0 0 1-.003.703Z"/><path fill="#D6F4FC" d="M32.558 8.198h-1.332v3.777h1.332V8.198Z"/><path fill="#43CAF9" d="M34.648 7.543h-2.09v4.433h2.09V7.543Z"/><path fill="#1C3C6B" d="M34.648 7.191h-2.09a.352.352 0 0 0-.351.352v.304h-.98a.352.352 0 0 0-.352.351V8.3c-.572-.05-.76-.158-1.284-.46a21.274 21.274 0 0 0-2.128-1.085c-.358-.141-1.295-.418-2.296.036l-1.414.506-1.193-1.192a.352.352 0 0 0-.497 0l-3.915 3.915a.349.349 0 0 0 0 .497l6.69 6.69c.107.107.358.14.497 0l3.574-3.574c.093.008.19.012.29.012.918 0 1.73-.63 2.195-1.317h3.254a.351.351 0 0 0 .352-.351V7.543a.352.352 0 0 0-.352-.352Zm-11.445 3.26c.065.541.454 1.022 1.054 1.245l.009.003.703.239a1.303 1.303 0 0 1-2.19.637 1.302 1.302 0 0 1 .424-2.123Zm.704-1.372c-.253.14-.45.35-.573.605a2.003 2.003 0 1 0 2.304 2.48l1.187.404c-.134.619.003 1.27.372 1.781l-.803.803a2.234 2.234 0 0 0-2.615 0l-3.577-3.577c.274-.378.422-.831.422-1.308 0-.476-.148-.93-.422-1.308l.802-.802c.377.275.83.423 1.308.423.476 0 .93-.148 1.307-.423l.76.76a1.388 1.388 0 0 0-.473.162Zm3.797 4.764a1.538 1.538 0 0 1-.225-.731c.168.121.374.24.62.335l-.395.396ZM22.312 6.85l.8.8a1.518 1.518 0 0 1-.8.227c-.288 0-.564-.079-.802-.226l.802-.801Zm-2.617 2.616c.148.238.226.514.226.801 0 .288-.078.563-.226.802l-.801-.802.801-.801Zm5.392 6.994-.802-.801a1.53 1.53 0 0 1 1.603 0l-.802.8Zm4.112-3.52c-.13 0-.253-.009-.367-.025h-.002c-.759-.11-1.167-.542-1.302-.713l-.042-.057a.35.35 0 0 0-.194-.161l-2.795-.949c-.446-.167-.682-.55-.574-.93v-.001a.68.68 0 0 1 .842-.472l3.15.998a.351.351 0 1 0 .212-.67l-2.505-.794-.022-.022v-.001l-1.297-1.297 1.114-.4a.433.433 0 0 0 .012-.004l.004-.001a.39.39 0 0 0 .014-.006c.754-.347 1.47-.14 1.751-.03 1.061.477 1.628.804 2.041 1.042.576.332.853.492 1.636.557v2.831c-.334.547-.98 1.106-1.676 1.106Zm2.379-4.39h.629v3.074h-.63V8.55Zm2.719 3.074H32.91v-3.73h1.387v3.73Z"/></g><defs><clipPath id="clip0_2012_1361"><path fill="#fff" d="M17 6h18v18H17z"/></clipPath></defs></svg>