<svg xmlns="http://www.w3.org/2000/svg" width="51" height="40" fill="none" viewBox="0 0 51 40"><path fill="#fff" d="M48.87 0H2.13A2.13 2.13 0 0 0 0 2.13v35.74A2.13 2.13 0 0 0 2.13 40h46.74A2.13 2.13 0 0 0 51 37.87V2.13A2.13 2.13 0 0 0 48.87 0Z"/><path stroke="#9DADBC" stroke-miterlimit="10" stroke-opacity=".36" d="M48.87.5H2.13C1.23.5.5 1.23.5 2.13v35.74c0 .9.73 1.63 1.63 1.63h46.74c.9 0 1.63-.73 1.63-1.63V2.13c0-.9-.73-1.63-1.63-1.63Z"/><path fill="#DF1F2E" d="M14.254 8h9.204c1.315 0 2.077 1.038 1.8 2.353l-4.291 18.478c-.277 1.315-1.592 2.353-2.907 2.353H8.856c-1.315 0-2.076-1.038-1.8-2.353l4.291-18.478C11.624 9.038 12.94 8 14.254 8Z"/><path fill="#15336F" d="M22.697 8h10.589c1.315 0 .692 1.038.415 2.353l-4.29 18.478c-.278 1.315-.209 2.353-1.523 2.353H17.299c-1.315 0-2.076-1.038-1.8-2.353l4.292-18.478C20.137 9.038 21.382 8 22.697 8Z"/><path fill="#007C82" d="M32.87 8h9.274c1.315 0 2.076 1.038 1.8 2.353l-4.291 18.478c-.277 1.315-1.592 2.353-2.907 2.353h-9.274c-1.315 0-2.076-1.038-1.799-2.353l4.29-18.478C30.31 9.038 31.626 8 32.87 8Z"/><path fill="#fff" fill-rule="evenodd" d="M31.348 25.37h.9l.276-.83h-.9l-.276.83Zm.692-2.283-.277.969s.346-.139.485-.208c.207-.069.484-.069.484-.069l.208-.692h-.9Zm.415-1.453-.277.968s.346-.138.485-.207c.208-.07.415-.07.415-.07l.208-.691h-.83Zm1.938 0-1.107 3.737h.276l-.207.761h-.277l-.07.208h-1.037l.069-.208h-2.145l.207-.692h.208l1.176-3.806.208-.762h1.107l-.138.416s.277-.208.554-.277c.276-.07 1.868-.07 1.868-.07l-.208.762h-.484v-.07Z" clip-rule="evenodd"/><path fill="#fff" d="M34.877 20.872h1.177v.416c0 .069.07.138.207.138h.208l-.208.692h-.622c-.554.07-.762-.208-.762-.484v-.762ZM35.016 24.263h-1.108l.208-.622h1.246l.207-.554h-1.245l.207-.692h3.46l-.207.692h-1.176l-.139.554h1.177l-.208.622h-1.246l-.276.277h.484l.138.83c0 .07 0 .14.07.14 0 0 .207.068.276.068h.139l-.208.762h-.692c-.138 0-.207-.07-.277-.139-.069-.069-.207-.138-.207-.277l-.139-.83-.553.761c-.208.277-.416.415-.83.415h-.831l.207-.692h.346c.07 0 .139-.069.208-.069.07 0 .138-.07.138-.138l.83-1.108ZM22.836 22.533h2.975l-.207.692h-1.177l-.207.623h1.176l-.207.692h-1.177l-.277.97c0 .137.277.137.416.137l.622-.069-.207.83h-1.384c-.139 0-.208 0-.277-.068-.139 0-.139-.07-.208-.139-.069-.069-.138-.138-.069-.277l.415-1.315h-.692l.208-.76h.692l.207-.624h-.692l.07-.692ZM24.843 21.288h1.176l-.208.76h-1.66l-.208.14c-.07.069-.07.069-.208.069-.069.069-.277.138-.553.138h-.554l.208-.692h.138c.138 0 .208 0 .277-.07.069 0 .138-.138.207-.207l.277-.554h1.177l-.07.416Z"/><path fill="#fff" fill-rule="evenodd" d="M27.196 22.464s.346-.277.9-.415h.899l.138-.415h-1.73l-.207.83Zm1.591.346h-1.66l-.14.346h1.662l.138-.346Zm-2.214-1.938h1.038l-.139.554s.346-.277.554-.346c.208-.07.761-.138.761-.138h1.661l-.553 1.868c-.07.346-.208.554-.277.623-.07.07-.139.208-.277.277-.139.069-.277.138-.415.138H26.85l-.485 1.523c-.07.138-.07.207-.07.277 0 .069.07.069.14.069l.691-.07-.207.693h-1.315c-.139 0-.277 0-.346-.07-.07-.069-.208-.138-.208-.207 0-.07.07-.208.07-.415l1.453-4.776Z" clip-rule="evenodd"/><path fill="#fff" d="m29.549 23.917-.07.485c-.069.138-.069.277-.207.346-.139.07-.277.207-.554.207h-.554v.485c0 .138 0 .138.07.138l.069.07h.761l-.207.76h-.623c-.416 0-.762 0-.9-.068-.138-.07-.138-.139-.138-.277l.069-2.007h.969v.415h.415s.07-.07.07-.138l.068-.346h.762v-.07ZM15.292 13.883c-.07.138-.692 3.114-.692 3.114-.138.623-.208 1.038-.554 1.315a1.17 1.17 0 0 1-.692.207c-.415 0-.692-.207-.692-.622v-.139l.139-.83s.692-2.7.761-3.046v-.069H11.97l-.069.208-.692 3.045.07.346-.14.83c0 .277.07.485.14.623.345.554 1.176.623 1.73.623.622 0 1.245-.138 1.66-.415.692-.415.9-1.107 1.038-1.661l.07-.277s.692-2.768.83-3.183v-.07c-.9.07-1.176 0-1.315 0ZM19.168 19.419H17.99v-.07c.07-.207.07-.414.139-.622l.069-.277c.069-.415.207-.969.207-1.107 0-.07.07-.346-.207-.346-.139 0-.208.069-.346.138-.07.208-.208.9-.277 1.177-.139.623-.139.692-.208 1.038l-.069.069h-1.176v-.07c.069-.345.207-.76.276-1.107.208-1.038.277-1.384.346-1.937l.07-.07c.553-.069.692-.069 1.245-.207l.07.07-.208.414c.07-.069.208-.138.277-.207.277-.139.553-.208.761-.208.277 0 .554.07.623.346.138.277.07.554-.138 1.246v.415c-.139.692-.139.83-.277 1.315ZM21.036 19.419h-1.245c.069-.277.138-.346.138-.484.07-.07.07-.208.138-.485.07-.346.139-.623.139-.83.069-.208.069-.416.069-.623.277-.07.484-.07.623-.07.207 0 .346-.069.623-.138-.07.208-.139.415-.139.692-.069.208-.138.415-.138.692-.139.485-.139.623-.139.762 0 .138 0 .207-.069.484ZM24.012 17.827c0 .139-.138.554-.277.762a.38.38 0 0 1-.346.207c-.069 0-.277 0-.277-.346 0-.138 0-.346.07-.553.138-.554.276-.97.622-.97.277 0 .347.347.208.9Zm1.177 0c.138-.692.069-1.038-.139-1.245-.277-.277-.692-.416-1.107-.416-.277 0-.9 0-1.384.485a2.18 2.18 0 0 0-.623 1.176c-.07.415-.208 1.246.484 1.523.208.069.554.138.762.138.553 0 1.107-.138 1.453-.553.415-.346.554-.9.554-1.108ZM36.538 19.488h-1.245v-.069c.138-.554.276-1.038.415-1.592.138-.692.208-.969.277-1.384l.069-.069c.554-.07.692-.07 1.315-.208v.07c-.139.415-.208.9-.346 1.314-.277.97-.346 1.454-.485 1.938Z"/><path fill="#fff" d="M35.708 17.827c0 .139-.139.554-.277.761-.07.139-.346.208-.484.208-.07 0-.277 0-.277-.346 0-.138 0-.346.069-.553.138-.554.277-.97.623-.97.346.07.484.416.346.9Zm1.107.07c.139-.693-.484-.07-.623-.277-.138-.346-.069-1.108-.692-1.385-.277-.069-.83 0-1.315.485a2.18 2.18 0 0 0-.623 1.177c-.069.415-.207 1.245.485 1.522.208.07.415.138.623.138.692-.069 1.245-1.107 1.66-1.591.416-.346.485.138.485-.07ZM28.372 19.419h-1.177v-.07c.07-.207.07-.414.139-.622l.07-.277c.068-.346.207-.9.207-1.038 0-.07.069-.346-.208-.346-.138 0-.207.07-.346.138-.07.208-.207.9-.277 1.177-.138.623-.138.692-.207 1.038l-.07.07h-1.176v-.07c.07-.346.208-.761.277-1.107.207-1.038.277-1.384.346-1.938l.069-.07c.554-.069.692-.069 1.246-.207l.069.07-.07.345c.07-.069.208-.138.278-.207.276-.139.553-.208.76-.208.278 0 .555.07.624.346.138.277.069.554-.139 1.246l-.069.415c-.138.692-.208.83-.346 1.315ZM32.386 13.883h-2.007c0 .069-.07.207-.07.207l-.345 1.661s-.83 3.53-.9 3.737h1.384c.07-.138.208-1.176.208-1.176l.207-.762.139-.138h.07c.76 0 1.59 0 2.283-.484.484-.346.761-.83.9-1.454.069-.138.069-.346.069-.484 0-.208-.07-.485-.208-.623-.208-.485-.9-.485-1.73-.485Zm.554 1.73a1.29 1.29 0 0 1-.623.83c-.277.139-.554.139-.9.139h-.208v-.07s.416-1.66.346-1.66v-.139h.139s.761.07.83.07c.346.138.485.414.416.83ZM41.175 16.235c-.623.07-.692.07-1.245.139l-.07.07c-.415.899-.415.691-.692 1.453v-.07l-.069-1.522-.07-.07c-.622.139-.622.139-1.176.208l-.069.07v.069c.07.346.07.276.139.83 0 .277.069.554.138.83.07.485.07.693.138 1.385-.346.623-.484.83-.83 1.384v.069h1.038l.07-.07c.345-.83 2.698-4.775 2.698-4.775ZM21.52 16.581c.277-.207.347-.484.07-.691a.978.978 0 0 0-1.038.138c-.277.207-.346.484-.07.692.277.138.762.07 1.039-.139Z"/><path fill="#fff" d="m38.476 20.872-.484.762c-.139.276-.415.484-.83.484h-.693l.208-.692h.277c.069 0 .069-.07.069-.07l.277-.414h1.176v-.07Z"/></svg>