<svg xmlns="http://www.w3.org/2000/svg" width="51" height="40" fill="none" viewBox="0 0 51 40"><rect width="51" height="40" fill="#fff" rx="2.13"/><rect width="50" height="39" x=".5" y=".5" stroke="#9DADBC" stroke-opacity=".36" rx="1.63"/><path fill="#D6F4FC" d="M36.4 7.619V21.48c0 .894-.723 1.619-1.614 1.619H14.614A1.617 1.617 0 0 1 13 21.481V7.62C13 6.725 13.723 6 14.614 6h20.172c.891 0 1.614.725 1.614 1.619Z"/><path fill="#E5F5FD" d="M36.4 7.619v1.254c0 .476-.403.809-.769.809-8.474.417-15.09 5.511-17.857 12.894a.806.806 0 0 1-.755.524h-2.405A1.616 1.616 0 0 1 13 21.481V7.62C13 6.725 13.723 6 14.614 6h20.172c.892 0 1.614.725 1.614 1.619Z"/><path fill="#FCCD03" d="M34.6 18.6c0 .994-.813 1.8-1.815 1.8a1.816 1.816 0 0 1-1.335-.58c-1.113 1.197-3.15.42-3.15-1.22 0-1.642 2.038-2.416 3.15-1.22.332-.357.807-.58 1.335-.58 1.002 0 1.815.806 1.815 1.8Z"/><path fill="#99C2FF" d="M30.1 20.4a1.8 1.8 0 1 0 0-3.6 1.8 1.8 0 0 0 0 3.6Z"/><path fill="#43CAF9" d="M13 9.6h23.4v3.6H13V9.6Z"/><path fill="#43CAF9" d="M36.4 9.6c-.513.171-5.608-.088-10.914 3.59-.018.014.566.01-12.486.01V9.6h23.4Z"/><path fill="#1C3C6B" d="M37.3 8.034v13.932A2.032 2.032 0 0 1 35.275 24h-20.25A2.032 2.032 0 0 1 13 21.966v-6.102a.406.406 0 1 1 .81 0v6.102c0 .673.545 1.22 1.215 1.22h20.25a1.22 1.22 0 0 0 1.215-1.22V8.034a1.22 1.22 0 0 0-1.215-1.22h-20.25a1.22 1.22 0 0 0-1.215 1.22V9.66h20.756a.406.406 0 0 1 0 .814H13.81v2.644h20.756a.406.406 0 0 1 0 .813H13.405a.406.406 0 0 1-.405-.407V8.034C13 6.912 13.908 6 15.025 6h20.25c1.117 0 2.025.912 2.025 2.034ZM34.06 18.61c0-1.044-1.156-1.677-2.031-1.11.859 1.414-.158 3.246-1.817 3.246a2.133 2.133 0 0 1-2.126-2.136c0-1.752 1.997-2.756 3.392-1.715 1.402-1.041 3.392-.034 3.392 1.715a2.133 2.133 0 0 1-2.126 2.136.406.406 0 0 1 0-.814 1.32 1.32 0 0 0 1.316-1.322Zm-2.531 0a1.32 1.32 0 0 0-1.317-1.322 1.32 1.32 0 0 0-1.316 1.322c0 .73.59 1.322 1.316 1.322a1.32 1.32 0 0 0 1.317-1.322Zm-14.833-.864h3.391a.406.406 0 0 0 0-.814h-3.391a.406.406 0 0 0 0 .814Zm0 2.542h3.391a.406.406 0 0 0 0-.813h-3.391a.406.406 0 0 0 0 .813ZM8.69 33h-.928l.006-.685h.922c.23 0 .425-.052.583-.156a.96.96 0 0 0 .358-.46c.082-.201.123-.444.123-.73v-.207c0-.219-.024-.411-.07-.577a1.148 1.148 0 0 0-.203-.42.846.846 0 0 0-.33-.254 1.094 1.094 0 0 0-.452-.088h-.955v-.689H8.7c.285 0 .546.05.782.147.239.096.445.233.619.413.173.18.307.395.401.645.096.247.144.524.144.829v.202c0 .303-.048.579-.144.829a1.78 1.78 0 0 1-1.02 1.058 2.104 2.104 0 0 1-.79.143Zm-.43-4.266V33h-.88v-4.266h.88Zm5.886 3.58V33h-2.271v-.685h2.27Zm-1.984-3.58V33h-.879v-4.266h.88Zm1.688 1.738v.668h-1.975v-.668h1.975Zm.293-1.738v.689h-2.268v-.689h2.268Zm2.185 2.394h-1.096l-.005-.604h.92c.162 0 .294-.02.398-.061a.483.483 0 0 0 .231-.185.541.541 0 0 0 .08-.298.606.606 0 0 0-.077-.323.419.419 0 0 0-.231-.178 1.212 1.212 0 0 0-.401-.056h-.61V33h-.879v-4.266h1.489c.248 0 .47.024.665.07.197.048.364.119.5.215a.952.952 0 0 1 .314.363c.072.144.108.316.108.515 0 .176-.04.338-.12.487a.892.892 0 0 1-.372.363c-.168.094-.387.146-.659.155l-.255.226ZM16.29 33h-1.298l.343-.685h.955c.154 0 .28-.025.378-.074.098-.05.17-.119.217-.205a.609.609 0 0 0 .07-.296.76.76 0 0 0-.064-.325.435.435 0 0 0-.2-.21.749.749 0 0 0-.363-.077h-.847l.006-.604h1.055l.202.238c.26-.004.469.042.627.137.16.094.277.216.349.367.074.15.111.311.111.483 0 .274-.06.504-.179.691-.119.186-.294.326-.524.42-.229.093-.508.14-.838.14Zm3.135-4.266V33h-.876v-4.266h.876Zm2.642 0V33h-.876v-4.266h.876Zm1.313 0v.689H19.9v-.689h3.48Zm4.31 2.851h.875a1.587 1.587 0 0 1-.237.765 1.414 1.414 0 0 1-.583.521c-.248.125-.547.188-.896.188-.274 0-.519-.047-.736-.141a1.565 1.565 0 0 1-.556-.41 1.828 1.828 0 0 1-.349-.645 2.788 2.788 0 0 1-.12-.846v-.296c0-.313.04-.595.123-.847a1.87 1.87 0 0 1 .357-.647c.157-.178.343-.315.56-.41a1.78 1.78 0 0 1 .727-.144c.355 0 .655.064.899.193.246.13.436.307.571.533.137.227.219.485.246.774h-.879a1.132 1.132 0 0 0-.102-.437.581.581 0 0 0-.267-.272.998.998 0 0 0-.468-.094.85.85 0 0 0-.384.082.712.712 0 0 0-.276.25c-.074.11-.13.251-.167.421a2.924 2.924 0 0 0-.052.592v.302c0 .22.016.415.05.583.033.166.083.306.152.422.07.113.16.199.27.257a.876.876 0 0 0 .4.085c.184 0 .336-.029.455-.088a.607.607 0 0 0 .272-.26 1.02 1.02 0 0 0 .114-.431Zm3.187-2.121L29.717 33h-.935l1.585-4.266h.595l-.085.73ZM31.841 33l-1.163-3.536-.094-.73h.6L32.779 33h-.937Zm-.053-1.588v.689h-2.253v-.689h2.253Zm1.386-2.678h1.59c.327 0 .607.05.841.147.237.098.418.242.545.433.127.192.19.427.19.706 0 .229-.038.425-.116.59a1.101 1.101 0 0 1-.326.407 1.685 1.685 0 0 1-.489.257l-.278.147h-1.383l-.006-.686h1.029a.803.803 0 0 0 .383-.082.537.537 0 0 0 .229-.228.705.705 0 0 0 .079-.34.771.771 0 0 0-.076-.355.513.513 0 0 0-.232-.228.853.853 0 0 0-.39-.08h-.711V33h-.88v-4.266ZM35.559 33l-.973-1.901.929-.006.984 1.866V33h-.94Zm2.768 0h-.929l.006-.685h.923c.23 0 .425-.052.583-.156a.961.961 0 0 0 .358-.46c.082-.201.123-.444.123-.73v-.207a2.13 2.13 0 0 0-.07-.577 1.149 1.149 0 0 0-.203-.42.846.846 0 0 0-.33-.254 1.094 1.094 0 0 0-.452-.088h-.955v-.689h.955c.285 0 .546.05.782.147.238.096.444.233.618.413.174.18.308.395.402.645.095.247.143.524.143.829v.202c0 .303-.048.579-.143.829a1.78 1.78 0 0 1-1.02 1.058 2.105 2.105 0 0 1-.79.143Zm-.43-4.266V33h-.88v-4.266h.88Zm5.244 3.15a.566.566 0 0 0-.035-.205.387.387 0 0 0-.124-.17 1.09 1.09 0 0 0-.255-.155c-.109-.051-.25-.104-.424-.159a5.384 5.384 0 0 1-.551-.21 2.267 2.267 0 0 1-.457-.273 1.227 1.227 0 0 1-.31-.366 1.01 1.01 0 0 1-.112-.484 1 1 0 0 1 .117-.483c.078-.147.188-.272.328-.375.141-.106.307-.187.498-.243.194-.057.406-.085.636-.085.315 0 .589.056.823.17.235.113.416.268.545.465.131.198.197.423.197.677h-.873a.658.658 0 0 0-.08-.328.536.536 0 0 0-.234-.225.835.835 0 0 0-.392-.082.909.909 0 0 0-.381.07.508.508 0 0 0-.229.184.454.454 0 0 0-.076.258c0 .073.017.138.053.197a.594.594 0 0 0 .164.164c.072.05.16.098.266.143.106.045.228.089.367.132.232.07.436.15.612.237a1.9 1.9 0 0 1 .445.296c.12.11.21.234.27.372.06.139.09.296.09.472 0 .185-.036.352-.108.498-.072.147-.177.27-.313.372-.137.102-.3.179-.49.232-.19.052-.401.079-.635.079-.211 0-.42-.028-.624-.082a1.896 1.896 0 0 1-.56-.255 1.284 1.284 0 0 1-.398-.434c-.1-.176-.15-.384-.15-.624h.882c0 .133.02.245.062.337a.562.562 0 0 0 .172.223.741.741 0 0 0 .27.123c.105.025.22.038.346.038a.937.937 0 0 0 .375-.065.463.463 0 0 0 .293-.436Z"/></svg>